<mxfile host="app.diagrams.net" modified="2020-09-17T11:20:19.584Z" agent="5.0 (Windows NT 10.0; Win64; x64) AppleWebKit/537.36 (KHTML, like Gecko) Chrome/77.0.3865.90 Safari/537.36" etag="q54j-S6lwXzT9AMSqixF" version="13.7.2" type="github">
  <diagram name="Page-1" id="90a13364-a465-7bf4-72fc-28e22215d7a0">
    <mxGraphModel dx="1344" dy="781" grid="1" gridSize="10" guides="1" tooltips="1" connect="1" arrows="1" fold="1" page="1" pageScale="1.5" pageWidth="1169" pageHeight="826" background="#ffffff" math="0" shadow="1">
      <root>
        <mxCell id="0" style=";html=1;" />
        <mxCell id="1" style=";html=1;" parent="0" />
        <mxCell id="3a17f1ce550125da-2" value="" style="whiteSpace=wrap;html=1;shadow=1;fontSize=18;fillColor=#647687;strokeColor=#314354;fontColor=#ffffff;rounded=1;glass=1;" parent="1" vertex="1">
          <mxGeometry x="690" y="500" width="230" height="270" as="geometry" />
        </mxCell>
        <mxCell id="3a17f1ce550125da-5" value="被测对象&lt;br&gt;（PCS）" style="whiteSpace=wrap;html=1;shadow=1;fontSize=18;fillColor=#647687;strokeColor=#314354;fontColor=#ffffff;rounded=1;glass=1;sketch=0;" parent="1" vertex="1">
          <mxGeometry x="1050" y="510" width="117" height="160" as="geometry" />
        </mxCell>
        <mxCell id="457Go69n1ICu2Af2Cj9l-28" value="半实物仿真平台（HIL）" style="text;strokeColor=none;fillColor=none;html=1;fontSize=24;fontStyle=1;verticalAlign=middle;align=center;shadow=1;" vertex="1" parent="1">
          <mxGeometry x="800" y="440" width="265" height="40" as="geometry" />
        </mxCell>
        <mxCell id="457Go69n1ICu2Af2Cj9l-29" value="&lt;font style=&quot;font-size: 14px&quot;&gt;Plant 模型&lt;br&gt;（刚性等离子体响应模型）&lt;/font&gt;" style="rounded=1;whiteSpace=wrap;html=1;shadow=1;glass=1;" vertex="1" parent="1">
          <mxGeometry x="720" y="520" width="175" height="60" as="geometry" />
        </mxCell>
        <mxCell id="457Go69n1ICu2Af2Cj9l-34" value="" style="shape=flexArrow;endArrow=classic;startArrow=classic;html=1;entryX=0;entryY=0.25;entryDx=0;entryDy=0;exitX=1;exitY=0.5;exitDx=0;exitDy=0;strokeColor=#30765C;fillColor=#000000;sketch=0;shadow=1;" edge="1" parent="1" source="457Go69n1ICu2Af2Cj9l-29" target="3a17f1ce550125da-5">
          <mxGeometry width="50" height="50" relative="1" as="geometry">
            <mxPoint x="940" y="545" as="sourcePoint" />
            <mxPoint x="990" y="495" as="targetPoint" />
          </mxGeometry>
        </mxCell>
        <mxCell id="457Go69n1ICu2Af2Cj9l-35" value="数据记录/分析" style="rounded=1;whiteSpace=wrap;html=1;shadow=1;glass=1;" vertex="1" parent="1">
          <mxGeometry x="720" y="600" width="180" height="60" as="geometry" />
        </mxCell>
        <mxCell id="457Go69n1ICu2Af2Cj9l-37" value="" style="shape=flexArrow;endArrow=classic;html=1;entryX=1;entryY=0.5;entryDx=0;entryDy=0;exitX=0;exitY=0.75;exitDx=0;exitDy=0;fillColor=#f9f7ed;strokeColor=#36393d;rounded=1;shadow=1;sketch=0;" edge="1" parent="1" source="3a17f1ce550125da-5" target="457Go69n1ICu2Af2Cj9l-35">
          <mxGeometry width="50" height="50" relative="1" as="geometry">
            <mxPoint x="900" y="710" as="sourcePoint" />
            <mxPoint x="950" y="660" as="targetPoint" />
          </mxGeometry>
        </mxCell>
        <mxCell id="457Go69n1ICu2Af2Cj9l-38" value="激励文件" style="rounded=1;whiteSpace=wrap;html=1;shadow=1;glass=1;" vertex="1" parent="1">
          <mxGeometry x="720" y="690" width="180" height="50" as="geometry" />
        </mxCell>
        <mxCell id="457Go69n1ICu2Af2Cj9l-39" value="" style="shape=flexArrow;endArrow=classic;html=1;exitX=1;exitY=0.5;exitDx=0;exitDy=0;entryX=0.5;entryY=1;entryDx=0;entryDy=0;fillColor=#f9f7ed;strokeColor=#36393d;shadow=1;sketch=0;" edge="1" parent="1" source="457Go69n1ICu2Af2Cj9l-38" target="3a17f1ce550125da-5">
          <mxGeometry width="50" height="50" relative="1" as="geometry">
            <mxPoint x="1010" y="710" as="sourcePoint" />
            <mxPoint x="1060" y="660" as="targetPoint" />
            <Array as="points">
              <mxPoint x="1040" y="715" />
              <mxPoint x="1109" y="715" />
            </Array>
          </mxGeometry>
        </mxCell>
      </root>
    </mxGraphModel>
  </diagram>
</mxfile>
